<svg xmlns="http://www.w3.org/2000/svg"><style>:root svg:not(:target){display:none}</style><svg fill="none" id="food-burger" viewBox="0 0 40 40"><path d="M37.743 25.85H2.257C.997 25.85 0 26.864 0 28.029v1.773c0 1.165.997 2.128 2.257 2.128h.525v.506c0 2.786 2.362 5.015 5.197 5.015h24.042c2.887 0 5.197-2.28 5.197-5.015v-.506h.525c1.207 0 2.257-.963 2.257-2.178v-1.773c0-1.115-.997-2.128-2.257-2.128Zm-2.047 6.585c0 1.925-1.628 3.495-3.622 3.495H7.927c-1.995 0-3.623-1.57-3.623-3.495v-.506h31.392v.506Zm2.73-2.684c0 .354-.316.658-.683.658H2.257c-.367 0-.682-.304-.682-.658v-1.773c0-.304.315-.608.682-.608h35.538c.368 0 .683.304.683.659v1.722h-.053ZM8.504 21.747l2.835 2.026 2.887-2.026 2.887 2.026L20 21.747l2.835 2.026 2.887-2.026 2.887 2.026 2.887-2.026 2.887 2.026 3.307-2.38-.892-1.216-2.415 1.672-2.887-2.026-2.887 2.026-2.887-2.026-2.887 2.026L20 19.823l-2.887 2.026-2.887-2.026-2.887 2.026-2.835-2.026-2.887 2.026-2.415-1.672-.945 1.216 3.36 2.38 2.887-2.026ZM37.218 18.303c0-.304.052-1.317 0-1.52C36.85 8.883 29.29 2.55 20 2.55S3.097 8.882 2.73 16.784v1.52h34.488ZM20 4.07c8.399 0 15.328 5.673 15.643 12.714H4.304C4.672 9.743 11.601 4.07 20 4.07Z" fill="#81B3D2"></path><path d="M20 11.161c.58 0 1.05-.453 1.05-1.013 0-.56-.47-1.013-1.05-1.013-.58 0-1.05.454-1.05 1.013 0 .56.47 1.013 1.05 1.013ZM15.8 8.679c.58 0 1.05-.454 1.05-1.013 0-.56-.47-1.013-1.05-1.013-.58 0-1.05.453-1.05 1.013 0 .56.47 1.013 1.05 1.013ZM24.2 8.679c.58 0 1.05-.454 1.05-1.013 0-.56-.47-1.013-1.05-1.013-.58 0-1.05.453-1.05 1.013 0 .56.47 1.013 1.05 1.013Z" fill="#81B3D2"></path></svg><svg id="github" viewBox="0 0 500 500"><path d="M250.2 4.2C111.8 4.2 0 116.8 0 256.2 0 367.7 71.7 462 171.1 495.4c12.4 2.5 17-5.4 17-12.1 0-5.8-.4-25.9-.4-46.7-69.6 15-84.1-30-84.1-30-11.2-29.2-27.8-36.7-27.8-36.7-22.8-15.4 1.7-15.4 1.7-15.4 25.3 1.7 38.5 25.9 38.5 25.9 22.4 38.4 58.4 27.5 72.9 20.9 2.1-16.3 8.7-27.5 15.7-33.8-55.5-5.8-113.9-27.5-113.9-124.4 0-27.5 9.9-50.1 25.7-67.6-2.5-6.3-11.2-32.1 2.5-66.8 0 0 21.1-6.7 68.8 25.9 20.4-5.5 41.4-8.3 62.6-8.3 21.1 0 42.7 2.9 62.5 8.3 47.6-32.6 68.8-25.9 68.8-25.9 13.7 34.6 5 60.5 2.5 66.8 16.2 17.5 25.7 40.1 25.7 67.6 0 96.8-58.4 118.1-114.3 124.4 9.1 7.9 17 22.9 17 46.7 0 33.8-.4 60.9-.4 69.3 0 6.7 4.6 14.6 17 12.1C428.3 462 500 367.7 500 256.2c.4-139.4-111.9-252-249.8-252z"></path></svg><svg fill="none" id="house" viewBox="0 0 40 40"><path d="M15.902 34.804h8.353V22.646h-8.353v12.158Zm6.839-1.475h-5.325V24.12h5.273v9.208h.052Z" fill="#81B3D2"></path><path d="m38.404 21.628 1.096-1.069-5.169-5.036V1.788h-7.205v6.715l-7.152-6.918L.5 20.61l1.096 1.069L5.67 17.71V36.94H3.633v1.475h33.361V36.94h-2.663V17.66l4.073 3.968ZM28.64 3.314h4.124v10.734l-4.124-4.019V3.314Zm4.176 33.575H7.235V16.185L19.974 3.72l12.791 12.464v20.704h.052Z" fill="#81B3D2"></path><path d="M16.058 15.422c0 2.187 1.828 3.968 4.02 3.968 2.245 0 4.073-1.781 4.073-3.968 0-2.188-1.828-3.918-4.073-3.918s-4.02 1.73-4.02 3.918Zm4.02-2.544c1.41 0 2.61 1.12 2.61 2.544 0 1.373-1.148 2.543-2.61 2.543-1.41 0-2.61-1.119-2.61-2.543 0-1.374 1.2-2.544 2.61-2.544ZM10.89 22.646H9.322v1.984h1.566v-1.984ZM13.97 22.646h-1.566v1.984h1.566v-1.984ZM10.89 25.698H9.322v1.983h1.566v-1.983ZM13.97 25.698h-1.566v1.983h1.566v-1.983ZM27.544 22.646h-1.566v1.984h1.566v-1.984ZM30.677 22.646H29.11v1.984h1.566v-1.984ZM27.544 25.698h-1.566v1.983h1.566v-1.983ZM30.677 25.698H29.11v1.983h1.566v-1.983Z" fill="#81B3D2"></path></svg><svg fill="none" id="html-academy" viewBox="0 0 29 35"><path d="M14.65.45h-.1l-13.5 1.4v24.7l13.5 8 13.4-8V1.85L14.65.45Zm11.4 12.1-11.5-6.8v-.1h-.1l-.1-.1v.1l-11.4 6.9v-9l11.5-1.2 11.6 1.2v9Zm-11.6-5.3 11.5 6.7-4.5 2.6-7.1-4.2v1.4l5.9 3.5-.9.5-5-3v1.4l3.8 2.3-.8.5-3-1.8v1.4l1.9 1.1-1.8 1.1-11.4-6.7 11.4-6.8Zm-11.5 8.3 11.4 6.8v1l-7.9-4.7v1.4l8 4.8v1.1l-8-4.7v1.4l8 4.8 8.1-4.9v-5.2l3.4-2v10l-11.5 6.9-11.5-6.8v-9.9Z" fill="#000"></path></svg><svg fill="none" id="icon-burger-opened" viewBox="0 0 23 23"><path d="M22.2 2.8 19.4 0l-8.3 8.3L2.8 0 0 2.8l8.3 8.3L0 19.4l2.8 2.8 8.3-8.3 8.3 8.3 2.8-2.8-8.3-8.3 8.3-8.3Z" fill="#fff"></path></svg><svg fill="none" id="icon-burger" viewBox="0 0 23 22"><path d="M22.9 0H0v4h22.9V0ZM22.9 9H0v4h22.9V9ZM22.9 18H0v4h22.9v-4Z" fill="#81B3D2"></path></svg><svg fill="none" id="icon-checkbox-mark" viewBox="0 0 22 16"><path d="M21.805 1.307 20.76.222c-.285-.296-.856-.296-1.141 0L8.298 11.957 2.403 5.843c-.286-.296-.856-.296-1.142 0L.214 6.928c-.285.295-.285.887 0 1.183l7.419 7.692c.19.197.38.197.57.197.191 0 .381-.099.571-.197L21.615 2.49c.476-.296.476-.789.19-1.183Z" fill="#333"></path></svg><svg fill="none" id="like" viewBox="0 0 23 21"><path d="m12.964 3.78-.628 3.045-.627 2.625h9.096v2.205L17.773 18.9h-9.41V8.4l4.6-4.62ZM2.09 10.5v8.4-8.4ZM13.8 0 6.9 6.93c-.418.315-.627.84-.627 1.47v10.5c0 1.155.94 2.1 2.09 2.1h9.41c.836 0 1.568-.525 1.881-1.26l3.137-7.455c.104-.21.104-.525.104-.735v-2.1H23c0-1.155-.94-2.1-2.09-2.1h-6.587l1.045-4.83v-.315c0-.42-.209-.84-.418-1.155L13.8 0ZM4.182 8.4H0V21h4.182V8.4Z" fill="#fff"></path></svg><svg fill="none" id="mail" viewBox="0 0 58 58"><path fill="#E6E6E6" d="M0 0h58v58H0z"></path><path d="M29 31c-.3 0-.5-.1-1-.3L21 27v7c0 .5.5 1 1 1h14c.5 0 1-.5 1-1v-7l-7 3.7c-.5.2-.7.3-1 .3Zm7-8H22c-.5 0-1 .5-1 1v.8l8 4.2 8-4.2V24c0-.5-.5-1-1-1Z" fill="#000"></path></svg><svg fill="none" id="map-pin" viewBox="0 0 27 27"><path d="M13.5 27C20.956 27 27 20.956 27 13.5S20.956 0 13.5 0 0 6.044 0 13.5 6.044 27 13.5 27Z" fill="#fff"></path><path d="M13.5 21.9a8.4 8.4 0 1 0 0-16.8 8.4 8.4 0 0 0 0 16.8Z" fill="#81B3D3"></path></svg><svg fill="none" id="phone" viewBox="0 0 58 58"><path fill="#E6E6E6" d="M0 0h58v58H0z"></path><path d="M23.6 27.8c1.4 2.8 3.8 5.1 6.6 6.6l2.2-2.2c.3-.3.7-.4 1-.2 1.1.4 2.3.6 3.6.6.6 0 1 .4 1 1V37c0 .6-.4 1-1 1-9.4 0-17-7.6-17-17 0-.6.4-1 1-1h3.5c.6 0 1 .4 1 1 0 1.2.2 2.4.6 3.6.1.3 0 .7-.2 1l-2.3 2.2Z" fill="#010101"></path></svg><svg fill="none" id="play" viewBox="0 0 48 54"><path d="M48 27 0 54V0l48 27Z" fill="#fff" fill-opacity=".7"></path></svg><svg fill="none" id="souvenir" viewBox="0 0 40 40"><path d="M34.578 12.206H22.184c6.908-3.444 7.467-5.622 7.213-6.838-.559-1.975-2.845-3.495-4.978-2.685-2.794 1.064-3.556 5.217-4.317 8.206-.965-3.04-1.88-6.889-4.064-8.864-.61-.557-1.524-1.114-2.895-1.013-2.032.203-4.927 2.684-3.708 5.47 1.117 2.685 4.825 4.407 7.314 5.775H5.422c-.812 0-1.422.658-1.422 1.418v5.672c0 .811.66 1.419 1.422 1.419h.153V39h28.952V20.766h.05c.814 0 1.423-.659 1.423-1.418v-5.673c0-.81-.66-1.47-1.422-1.47ZM25.232 3.95c1.066-.152 2.489.658 2.641 1.62.203 1.368-1.676 2.634-2.54 3.192-1.27.86-2.489 1.316-3.657 2.026.407-1.874 1.27-6.534 3.556-6.838Zm-11.48 4.964c-1.117-.76-3.25-2.23-3.2-3.9.051-1.824 2.896-3.293 4.42-1.925 1.93 1.671 2.844 5.571 3.555 8.306-1.625-.81-3.15-1.418-4.775-2.481ZM16.75 37.48H7.048V20.767h9.701V37.48Zm0-18.234H5.524v-5.52h11.225v5.52Zm5.08 18.235h-3.607V13.724h3.607V37.48Zm11.174 0h-9.65V20.765h9.701V37.48h-.05Zm1.473-18.235H23.352v-5.52h11.124v5.52Z" fill="#81B3D2"></path></svg><svg id="telegram" viewBox="0 0 500 500"><path d="M34.4 221.2c134.2-58.5 223.7-97 268.5-115.7 127.9-53.2 154.4-62.4 171.7-62.7 3.8-.1 12.3.9 17.8 5.4 4.7 3.8 5.9 8.9 6.6 12.5.6 3.6 1.4 11.7.8 18.1-6.9 72.8-36.9 249.5-52.2 331-6.5 34.5-19.2 46.1-31.5 47.2-26.7 2.5-47-17.7-72.9-34.6-40.5-26.6-63.4-43.1-102.7-69-45.5-30-16-46.4 9.9-73.3 6.8-7 124.6-114.2 126.9-123.9.3-1.2.5-5.7-2.1-8.1-2.7-2.4-6.7-1.6-9.5-.9-4.1.9-68.8 43.7-194.2 128.4-18.4 12.6-35 18.8-49.9 18.4-16.4-.4-48.1-9.3-71.6-16.9-29-9.6-51.9-14.5-49.9-30.5 1.1-8.3 12.5-16.7 34.3-25.4z"></path></svg><svg id="vk" viewBox="0 0 500 500"><path d="M285.2 406V294.6c61.5 6.2 107.4 52.1 126.1 111.4H500c-24.1-88.7-86.4-137.7-125.2-156.4 38.8-23.2 93.6-79.3 106.5-155.5h-80.6c-17 61.9-67.3 118.1-115.4 123.4V94h-82v216.1c-50-12.3-115.1-73-117.7-216.1H0c4 194.8 106.5 312 275.4 312h9.8z"></path></svg><svg id="youtube" viewBox="0 0 500 500"><path d="M489.6 129.7c-5.8-21.5-22.7-38.5-44.2-44.2C406.4 75 250 75 250 75S93.6 75 54.7 85.4c-21.5 5.8-38.5 22.7-44.2 44.2C0 168.6 0 250 0 250s0 81.4 10.4 120.3c5.8 21.5 22.7 38.5 44.2 44.2C93.6 425 250 425 250 425s156.4 0 195.3-10.4c21.5-5.8 38.5-22.7 44.2-44.2C500 331.4 500 250 500 250s0-81.4-10.4-120.3zM200 325V175l129.9 75L200 325z"></path></svg></svg>